<svg width="496" height="64" viewBox="0 0 496 64" fill="none" xmlns="http://www.w3.org/2000/svg">
<path d="M0 62.4285V1.84184H26.4869C33.0653 1.84184 38.8363 3.11132 43.7986 5.65015C48.7608 8.18897 52.6275 11.7088 55.3974 16.2095C58.1673 20.7103 59.5522 26.0188 59.5522 32.1352C59.5522 38.1938 58.1673 43.5023 55.3974 48.0608C52.6275 52.5615 48.7608 56.0814 43.7986 58.6202C38.8363 61.159 33.0653 62.4285 26.4869 62.4285H0ZM11.2526 52.9077H25.9675C30.5267 52.9077 34.4502 52.0422 37.7395 50.3112C41.0868 48.5801 43.6538 46.1567 45.4432 43.0408C47.2893 39.9249 48.213 36.2897 48.213 32.1352C48.213 27.9229 47.2893 24.2877 45.4432 21.2296C43.6538 18.1137 41.0868 15.6902 37.7395 13.9592C34.4502 12.2281 30.5267 11.3626 25.9675 11.3626H11.2526V52.9077ZM71.5121 62.4285V1.84184H82.7647V62.4285H71.5121ZM99.154 62.4285V1.84184H108.416L134.903 46.0701H130.055L156.109 1.84184H165.371L165.458 62.4285H154.811L154.725 18.5464H156.975L134.816 55.5043H129.796L107.291 18.5464H109.887V62.4285H99.154ZM173.255 62.4285L200.521 1.84184H211.6L238.953 62.4285H227.181L203.723 7.81396H208.224L184.854 62.4285H173.255ZM185.806 48.407L188.835 39.5787H221.554L224.584 48.407H185.806ZM246.658 62.4285V1.84184H255.919L293.919 48.4936H289.331V1.84184H300.497V62.4285H291.235L253.236 15.7768H257.824V62.4285H246.658ZM344.778 63.294C340.161 63.294 335.863 62.5439 331.881 61.0437C327.956 59.4857 324.524 57.3219 321.581 54.5522C318.695 51.7248 316.444 48.407 314.829 44.5987C313.213 40.7904 312.406 36.6359 312.406 32.1352C312.406 27.6345 313.213 23.4799 314.829 19.6716C316.444 15.8633 318.724 12.5743 321.667 9.80466C324.61 6.97724 328.043 4.81343 331.968 3.31323C335.891 1.75529 340.191 0.976318 344.865 0.976318C349.827 0.976318 354.357 1.84184 358.455 3.57289C362.551 5.24619 366.014 7.75621 368.842 11.1029L361.571 17.9406C359.377 15.5749 356.925 13.8149 354.213 12.6609C351.5 11.4492 348.557 10.8433 345.384 10.8433C342.21 10.8433 339.295 11.3626 336.642 12.4012C334.045 13.4399 331.765 14.9113 329.804 16.8154C327.9 18.7196 326.398 20.9699 325.303 23.5665C324.264 26.1631 323.745 29.0193 323.745 32.1352C323.745 35.2511 324.264 38.1073 325.303 40.7039C326.398 43.3004 327.9 45.5508 329.804 47.455C331.765 49.3591 334.045 50.8305 336.642 51.8691C339.295 52.9078 342.21 53.4271 345.384 53.4271C348.557 53.4271 351.5 52.85 354.213 51.696C356.925 50.4843 359.377 48.6667 361.571 46.2432L368.842 53.1674C366.014 56.4564 362.551 58.9664 358.455 60.6975C354.357 62.4285 349.799 63.294 344.778 63.294ZM422.21 1.84184H433.463V62.4285H422.21V1.84184ZM390.876 62.4285H379.624V1.84184H390.876V62.4285ZM423.076 36.4628H389.924V26.8555H423.076V36.4628ZM460.085 27.0286H490.207V36.2897H460.085V27.0286ZM460.951 52.9943H495.141V62.4285H449.698V1.84184H493.929V11.2761H460.951V52.9943Z" fill="white"/>
</svg>
