<svg width="142" height="142" viewBox="0 0 142 142" fill="none" xmlns="http://www.w3.org/2000/svg">
<path fill-rule="evenodd" clip-rule="evenodd" d="M142.01 71C142.01 110.212 110.22 142 71.005 142C31.79 142 0 110.212 0 71C0 31.7878 31.79 0 71.005 0C110.22 0 142.01 31.7878 142.01 71ZM33.0105 78.2325V101.429H21.7579V40.8419H65.9893V50.2761H33.0105V68.7118H62.2673V78.2325H33.0105ZM91.3428 100.044C95.3245 101.544 99.6236 102.294 104.24 102.294C109.26 102.294 113.819 101.429 117.916 99.6975C122.013 97.9665 125.476 95.4565 128.303 92.1675L121.032 85.2433C118.84 87.6667 116.387 89.4844 113.675 90.6961C110.963 91.8501 108.02 92.4271 104.846 92.4271C101.672 92.4271 98.758 91.9078 96.1035 90.8692C93.5067 89.8306 91.2274 88.3592 89.2654 86.455C87.3611 84.5509 85.8608 82.3005 84.7643 79.7039C83.7256 77.1074 83.2063 74.2511 83.2063 71.1352C83.2063 68.0193 83.7256 65.1631 84.7643 62.5666C85.8608 59.97 87.3611 57.7196 89.2654 55.8155C91.2274 53.9113 93.5067 52.4399 96.1035 51.4013C98.758 50.3627 101.672 49.8433 104.846 49.8433C108.02 49.8433 110.963 50.4492 113.675 51.661C116.387 52.8149 118.84 54.5749 121.032 56.9406L128.303 50.103C125.476 46.7563 122.013 44.2463 117.916 42.573C113.819 40.8419 109.289 39.9764 104.327 39.9764C99.6524 39.9764 95.3534 40.7554 91.4293 42.3133C87.5054 43.8135 84.0719 45.9773 81.1289 48.8047C78.1859 51.5744 75.9066 54.8634 74.2908 58.6717C72.6751 62.48 71.8671 66.6345 71.8671 71.1352C71.8671 75.636 72.6751 79.7905 74.2908 83.5988C75.9066 87.4071 78.1571 90.7249 81.0423 93.5523C83.9853 96.322 87.4188 98.4858 91.3428 100.044Z" fill="white"/>
</svg>
