<?xml version="1.0" encoding="utf-8"?>
<!-- Generator: Adobe Illustrator 27.5.0, SVG Export Plug-In . SVG Version: 6.00 Build 0)  -->
<svg version="1.1" xmlns="http://www.w3.org/2000/svg" xmlns:xlink="http://www.w3.org/1999/xlink" x="0px" y="0px"
	 viewBox="0 0 500 500" style="enable-background:new 0 0 500 500;" xml:space="preserve">
<g id="Background_Simple">
	<g>
		<path style="fill:#C6FF00;" d="M399.355,158.814c0,0-22.172-50.359-71.134-57.82c-48.962-7.461-83.144,28.91-119.173,47.562
			c-18.868,9.768-40.419,5.974-60.449,10.702c-64.047,15.117-88.174,109.829-61.495,163.691
			c23.096,46.629,63.744,70.876,125.64,76.471c61.896,5.595,105.316,12.124,160.746-33.573
			C428.917,320.151,425.222,225.027,399.355,158.814z"/>
		<path style="opacity:0.6;fill:#FFFFFF;" d="M399.355,158.814c0,0-22.172-50.359-71.134-57.82
			c-48.962-7.461-83.144,28.91-119.173,47.562c-18.868,9.768-40.419,5.974-60.449,10.702
			c-64.047,15.117-88.174,109.829-61.495,163.691c23.096,46.629,63.744,70.876,125.64,76.471
			c61.896,5.595,105.316,12.124,160.746-33.573C428.917,320.151,425.222,225.027,399.355,158.814z"/>
	</g>
</g>
<g id="Net">
	<path style="fill:#FFFFFF;" d="M408.942,188.614c-0.662-2.564-1.358-5.105-2.086-7.621l-0.386,4.433l-18.533-7.673l1.764-18.958
		l11.507,4.932c-0.318-0.867-0.638-1.73-0.963-2.588l-10.349-4.435l1.148-12.343c-0.561-0.832-1.152-1.686-1.772-2.558
		l-1.309,14.072l-16.524-7.082l1.994-16.97c4.136,1.741,8.226,3.478,12.273,5.205c-0.874-1.114-1.791-2.243-2.752-3.381
		c-3.07-1.305-6.16-2.614-9.274-3.924l0.618-5.257c-0.595-0.564-1.199-1.125-1.816-1.683l-0.721,6.133
		c-5.955-2.502-11.944-4.996-17.862-7.444l1.375-11.125c-0.622-0.348-1.252-0.689-1.888-1.024l-1.404,11.356
		c-7.289-3.011-14.443-5.942-21.261-8.719l1.171-10.311c-0.652-0.131-1.308-0.256-1.97-0.372l-1.124,9.9
		c-7.099-2.888-13.795-5.593-19.859-8.032l0.344-2.931c-0.681,0.048-1.358,0.104-2.033,0.167l-0.233,1.991
		c-1.297-0.521-2.549-1.023-3.779-1.517c-1.289,0.183-2.568,0.392-3.837,0.63c2.32,0.93,4.783,1.919,7.373,2.961l-1.857,15.835
		l-21.664-9.284l0.566-5.22c-0.702,0.254-1.4,0.515-2.096,0.782l-0.392,3.614l-4.135-1.772c-0.837,0.36-1.673,0.726-2.503,1.103
		l6.413,2.748l-2.207,20.353l-20.675-8.56l0.673-6.299c-0.717,0.417-1.433,0.836-2.146,1.26l-0.453,4.241l-3.885-1.608
		c-0.698,0.431-1.394,0.864-2.088,1.3l5.752,2.381l-2.276,21.311l-19.369-8.036l0.713-5.839c-0.73,0.478-1.461,0.955-2.189,1.43
		l-0.441,3.614l-3.129-1.298c-0.684,0.441-1.368,0.879-2.051,1.315l4.928,2.045l-2.117,17.346l-19.512-8.334l0.161-1.236
		c-0.581,0.311-1.163,0.617-1.745,0.918c-0.657,0.34-1.318,0.66-1.982,0.968l1.387,0.593l-2.167,16.653l-17.838-7.714l0.718-4.395
		c-0.69,0.107-1.382,0.208-2.076,0.301l-0.535,3.276l-5.926-2.563c-1.41,0.127-2.822,0.241-4.237,0.347l9.83,4.251l-2.594,15.885
		l-20.408-8.732l1.796-10.563c-0.687,0.058-1.374,0.12-2.06,0.185l-1.627,9.57l-15.522-6.641c-1.007,0.279-2.005,0.577-2.992,0.896
		l0.57,0.244l-3.298,19.413l-13.84-5.764l1.117-6.868c-0.759,0.453-1.51,0.92-2.253,1.398l-0.761,4.68l-3.744-1.559
		c-0.618,0.46-1.233,0.924-1.838,1.401l5.252,2.188l-3.653,22.459l-14.573-5.965l1.328-7.628c-0.867,0.98-1.72,1.975-2.551,2.993
		l-0.672,3.859l-1.783-0.73c-0.413,0.548-0.821,1.102-1.225,1.659l2.657,1.088l-4.402,25.283l-10.797-4.256
		c-0.267,0.61-0.523,1.227-0.781,1.842l11.228,4.425l-4.643,26.665l-14.564-5.407c-0.139,0.66-0.27,1.322-0.4,1.985l14.615,5.426
		l-5.32,30.558c-4.492-1.1-8.524-2.076-12.012-2.914c0.023,0.693,0.051,1.386,0.084,2.077c3.392,0.815,7.275,1.756,11.584,2.811
		l-4.926,28.292c-0.394-0.011-0.769-0.021-1.154-0.031c0.22,0.675,0.44,1.35,0.673,2.017c0.046,0.001,0.089,0.002,0.135,0.004
		l-0.043,0.248c0.439,1.244,0.905,2.469,1.389,3.681l0.674-3.868c4.99,0.157,10.645,0.392,16.801,0.741l-4.403,27.072
		c0.542,0.793,1.086,1.584,1.642,2.361l4.768-29.316c4.338,0.26,8.908,0.577,13.65,0.962l-6.118,36.014
		c-1.955,0.503-3.671,0.979-5.155,1.412c1.23,1.426,2.487,2.82,3.773,4.18c15.055-4.065,48.938-10.988,93.436-6.542
		c27.798,2.78,49.477,11.531,72.302,20.867l-0.032,0.276l0.993,0.116c18.333,7.501,37.105,15.169,59.236,19.481
		c2.572-1.198,5.156-2.494,7.755-3.897l0.267-2.268c0.728,0.315,1.447,0.626,2.156,0.933c0.72-0.405,1.442-0.819,2.165-1.241
		c-1.323-0.574-2.682-1.162-4.078-1.765l1.695-14.43c5.856,2.586,11.264,4.998,16.192,7.212c0.622-0.445,1.244-0.895,1.869-1.353
		c-5.366-2.413-11.32-5.07-17.816-7.937l2.491-21.206l21.23,7.882l-1.682,18.079c0.72-0.557,1.444-1.127,2.168-1.702l1.456-15.656
		l11.25,4.176c0.494-0.524,0.977-1.058,1.459-1.592l-12.517-4.647l1.986-21.354l19.429,7.658l-0.702,8.06
		c0.788-1.122,1.558-2.256,2.304-3.407l0.339-3.888l1.683,0.664c0.348-0.578,0.684-1.163,1.023-1.747l-2.525-0.995l1.901-21.815
		l9.549,3.909c0.236-0.623,0.464-1.251,0.691-1.879l-10.058-4.117l1.849-21.225l13.824,5.757c0.145-0.662,0.293-1.322,0.43-1.987
		l-14.072-5.86l1.501-17.229l15.186,6.497c0.078-0.692,0.15-1.386,0.221-2.08l-15.224-6.513l1.344-15.429l14.874,6.432
		c0.02-0.719,0.035-1.438,0.048-2.158l-14.74-6.374l1.564-17.954l12.756,5.448c-0.046-0.745-0.093-1.491-0.145-2.236l-12.428-5.308
		l1.712-19.645l8.299,3.443c-0.119-0.773-0.24-1.546-0.366-2.317l-7.751-3.216l1.882-21.605L408.942,188.614z M387.768,157.966
		l-1.766,18.985l-17.043-7.056l2.236-19.032L387.768,157.966z M145.943,269.06l21.231,7.882l-3.71,22.726
		c-7.395-2.028-14.672-3.985-21.73-5.853L145.943,269.06z M139.794,293.301c-5.536-1.461-10.928-2.864-16.121-4.202l4.524-26.628
		l15.839,5.88L139.794,293.301z M146.284,267.053l4.35-25.587l20.982,8.27l-4.113,25.195L146.284,267.053z M173.52,250.486
		l20.803,8.2l-3.253,24.994l-21.658-8.04L173.52,250.486z M173.85,248.466l3.972-24.326l19.936,8.16l-3.168,24.341L173.85,248.466z
		 M196.242,259.442l20.442,8.057l-2.999,24.576l-20.69-7.681L196.242,259.442z M196.508,257.397l3.164-24.313l20.202,8.269
		l-2.94,24.095L196.508,257.397z M221.794,242.138l20.892,8.551l-2.553,23.902l-21.276-8.386L221.794,242.138z M341.328,206.871
		l-2.146,17.368l-20.221-8.744l1.969-17.336L341.328,206.871z M321.166,196.085l2.097-18.467l20.623,8.556l-2.303,18.631
		L321.166,196.085z M338.926,226.307l-1.913,15.477L316.95,233.2l1.775-15.629L338.926,226.307z M317.043,214.665l-20.164-8.719
		l2.017-17.198l20.114,8.591L317.043,214.665z M316.807,216.742l-1.776,15.637l-20.237-8.658l1.842-15.701L316.807,216.742z
		 M314.796,234.454l-2.043,17.984l-20.334-8.468l2.132-18.177L314.796,234.454z M290.499,243.17l-20.648-8.599l2.005-18.489
		l20.778,8.89L290.499,243.17z M290.257,245.235l-2.548,21.721l-20.462-8.375l2.379-21.938L290.257,245.235z M287.467,269.018
		l-2.717,23.158l-20.279-7.993l2.552-23.533L287.467,269.018z M265.321,257.793l-20.488-8.386l2.361-22.106l20.508,8.541
		L265.321,257.793z M242.906,248.618l-20.862-8.539l2.7-22.128l20.523,8.547L242.906,248.618z M244.612,251.478l20.485,8.384
		l-2.555,23.561l-20.479-8.072L244.612,251.478z M264.248,286.246l20.262,7.986l-2.713,23.129l-20.113-7.467L264.248,286.246z
		 M286.434,294.99L307,303.096l-2.574,22.666l-20.699-7.685L286.434,294.99z M286.675,292.935l2.713-23.131l20.442,8.367
		l-2.597,22.867L286.675,292.935z M289.63,267.742l2.546-21.708l20.341,8.471l-2.453,21.6L289.63,267.742z M314.439,255.307
		l19.879,8.279l-2.641,21.367l-19.69-8.059L314.439,255.307z M314.674,253.238l2.04-17.963l20.043,8.575l-2.184,17.675
		L314.674,253.238z M338.671,244.669l18.557,7.94l-2.055,17.496l-18.684-7.781L338.671,244.669z M338.927,242.603l1.912-15.469
		l18.445,7.976l-1.812,15.427L338.927,242.603z M341.094,225.066l2.148-17.378l18.343,7.835l-2.058,17.514L341.094,225.066z
		 M343.497,205.623l2.306-18.654l18.248,7.571l-2.222,18.912L343.497,205.623z M346.057,184.91l2.626-21.245l18.114,7.5
		l-2.504,21.311L346.057,184.91z M348.938,161.605l2.381-19.261l17.96,7.697l-2.239,19.058L348.938,161.605z M347.021,160.812
		l-20.868-8.64l2.232-19.655l21.019,9.008L347.021,160.812z M346.766,162.871l-2.626,21.244l-20.643-8.565l2.42-21.311
		L346.766,162.871z M321.576,174.753l-20.062-8.324l2.494-21.261l19.988,8.276L321.576,174.753z M321.342,176.821l-2.095,18.444
		l-20.107-8.588l2.133-18.183L321.342,176.821z M297.222,185.858l-21.111-9.017l1.949-17.977l21.292,8.834L297.222,185.858z
		 M296.979,187.928l-2.016,17.189l-20.936-9.054l1.859-17.145L296.979,187.928z M294.72,207.191l-1.843,15.71l-20.796-8.898
		l1.72-15.858L294.72,207.191z M272.105,195.232l-20.538-8.881l1.82-17.042l20.576,8.788L272.105,195.232z M271.879,197.314
		l-1.721,15.867l-20.519-8.779l1.705-15.967L271.879,197.314z M269.933,215.259l-2.007,18.51l-20.511-8.542l2.002-18.745
		L269.933,215.259z M247.716,203.579l-20.164-8.628l1.948-15.963l19.923,8.615L247.716,203.579z M247.494,205.659l-2.004,18.766
		l-20.493-8.535l2.303-18.872L247.494,205.659z M223.079,215.092l-19.982-8.322l2.479-19.046l19.809,8.475L223.079,215.092z
		 M222.828,217.154l-2.702,22.141l-20.186-8.262l2.89-22.207L222.828,217.154z M198.024,230.248l-19.872-8.134l3.603-22.066
		l19.161,7.98L198.024,230.248z M176.253,221.337l-20.753-8.494l3.767-22.16l20.59,8.575L176.253,221.337z M175.922,223.363
		l-3.976,24.353l-20.97-8.265l4.18-24.588L175.922,223.363z M149.075,238.702l-15.785-6.221l4.22-24.84l15.749,6.446
		L149.075,238.702z M148.733,240.716l-4.357,25.628l-15.839-5.88l4.412-25.969L148.733,240.716z M126.628,259.756l-13.394-4.973
		l4.288-26.368l13.525,5.331L126.628,259.756z M126.288,261.763l-4.559,26.837c-4.659-1.197-9.154-2.339-13.438-3.419l4.616-28.386
		L126.288,261.763z M123.336,291.077c5.194,1.338,10.585,2.742,16.121,4.203l-3.22,18.942c-5.671-0.643-11.215-1.183-16.555-1.636
		L123.336,291.077z M141.398,295.794c7.063,1.869,14.344,3.828,21.742,5.858l-2.599,15.92c-7.523-1.237-15.015-2.266-22.314-3.121
		L141.398,295.794z M165.08,302.183c7.514,2.069,15.135,4.209,22.75,6.4l-1.828,14.048c-7.723-1.834-15.613-3.397-23.488-4.729
		L165.08,302.183z M165.404,300.2l3.681-22.549l21.721,8.064l-2.715,20.864C180.495,304.395,172.896,302.262,165.404,300.2z
		 M192.73,286.429l20.705,7.687l-2.349,19.251c-6.947-2.109-13.992-4.189-21.051-6.227L192.73,286.429z M215.363,294.831
		l21.746,8.073l-1.926,18.038c-7.177-2.346-14.6-4.68-22.153-6.985L215.363,294.831z M215.612,292.79l2.994-24.534l21.306,8.398
		l-2.584,24.198L215.612,292.79z M239.043,303.622l20.484,7.604l-1.887,17.405c-6.505-2.346-13.38-4.703-20.514-7.051
		L239.043,303.622z M239.262,301.57l2.58-24.156l20.476,8.07l-2.569,23.691L239.262,301.57z M261.461,311.945l20.096,7.461
		l-2.073,17.672c-0.893-0.368-1.788-0.737-2.689-1.107c-5.324-2.189-11.099-4.408-17.22-6.638L261.461,311.945z M283.486,320.122
		l20.707,7.687L302.07,346.5c-6.642-2.804-13.543-5.688-20.666-8.63L283.486,320.122z M306.124,328.526l19.284,7.159l-2.439,19.731
		c-6.044-2.606-12.38-5.314-18.979-8.105L306.124,328.526z M306.356,326.479l2.57-22.624l19.468,7.673l-2.734,22.117
		L306.356,326.479z M309.159,301.797l2.594-22.839l19.67,8.051l-2.777,22.468L309.159,301.797z M333.341,287.795l18.847,7.714
		l-2.61,22.219l-19.01-7.493L333.341,287.795z M333.595,285.737l2.639-21.354l18.696,7.786l-2.5,21.277L333.595,285.737z
		 M356.85,272.969l19.466,8.107l-1.985,21.335l-19.979-8.178L356.85,272.969z M357.093,270.904l2.053-17.475l18.986,8.123
		l-1.622,17.438L357.093,270.904z M359.389,251.358l1.811-15.419l18.568,8.029l-1.441,15.492L359.389,251.358z M361.444,233.866
		l2.059-17.524l18.115,7.737l-1.655,17.794L361.444,233.866z M363.746,214.272l2.224-18.935l17.64,7.319l-1.798,19.332
		L363.746,214.272z M366.213,193.272l2.504-21.313l17.091,7.076l-2.003,21.535L366.213,193.272z M353.639,123.562
		c5.926,2.453,11.919,4.951,17.874,7.454l-1.992,16.955l-17.948-7.692L353.639,123.562z M330.483,114.05
		c6.816,2.779,13.965,5.711,21.24,8.719l-2.063,16.69l-21.039-9.017L330.483,114.05z M308.695,105.221
		c6.072,2.446,12.772,5.157,19.865,8.045l-1.857,16.353l-19.871-8.516L308.695,105.221z M306.589,123.175l19.878,8.519
		l-2.236,19.682l-19.98-8.273L306.589,123.175z M283.025,113.076l21.646,9.277l-2.341,19.955l-21.509-8.906L283.025,113.076z
		 M280.597,135.474l21.492,8.898l-2.494,21.26l-21.31-8.841L280.597,135.474z M258,126.118l20.672,8.559l-2.311,21.316
		l-20.636-8.562L258,126.118z M255.502,149.504l20.633,8.561l-1.947,17.955l-20.579-8.79L255.502,149.504z M234.178,140.657
		l19.399,8.049l-1.891,17.703l-19.628-8.383L234.178,140.657z M231.806,160.092l19.658,8.396l-1.819,17.032l-19.892-8.602
		L231.806,160.092z M210.363,150.933l19.528,8.341l-2.052,16.817l-19.644-8.495L210.363,150.933z M207.926,169.659l19.66,8.501
		l-1.949,15.972l-19.794-8.469L207.926,169.659z M188.115,161.092l17.902,7.741l-2.084,16.013l-18.41-7.877L188.115,161.092z
		 M185.191,179.003l18.474,7.904l-2.481,19.067l-19.097-7.953L185.191,179.003z M162.876,169.455l20.421,8.737l-3.108,19.037
		l-20.578-8.57L162.876,169.455z M145.277,161.925l15.708,6.721l-3.268,19.225l-15.734-6.553L145.277,161.925z M141.639,183.341
		l15.734,6.553l-3.769,22.173l-15.75-6.446L141.639,183.341z M125.918,176.794l13.826,5.758l-3.787,22.292l-13.69-5.603
		L125.918,176.794z M121.938,201.266l13.676,5.598l-4.224,24.867l-13.538-5.336L121.938,201.266z M105.444,194.515l14.595,5.974
		l-4.091,25.155l-14.901-5.873L105.444,194.515z M100.696,221.783l14.923,5.882l-4.295,26.409l-15.263-5.666L100.696,221.783z
		 M95.712,250.411l15.285,5.674l-4.652,28.606c-5.732-1.44-11.067-2.763-15.913-3.953L95.712,250.411z M102.011,311.336
		c-6.139-0.35-11.785-0.588-16.777-0.747l4.853-27.875c4.854,1.192,10.196,2.517,15.935,3.959L102.011,311.336z M104.018,311.453
		l3.951-24.292c4.28,1.078,8.772,2.221,13.424,3.416l-3.711,21.842C112.936,312.033,108.362,311.715,104.018,311.453z
		 M113.347,349.878l6-35.316c5.339,0.451,10.883,0.99,16.555,1.632l-5.13,30.177C123.907,347.48,118.063,348.723,113.347,349.878z
		 M132.856,346.044l5.036-29.622c7.304,0.855,14.801,1.884,22.328,3.122l-3.919,24.001
		C147.597,344.09,139.747,344.991,132.856,346.044z M158.347,343.425l3.845-23.551c7.898,1.337,15.811,2.907,23.551,4.751
		l-2.41,18.517C174.406,342.859,166.055,343,158.347,343.425z M207.24,344.886c-1.15-0.138-2.294-0.283-3.462-0.399
		c-6.379-0.638-12.529-1.048-18.438-1.274l2.357-18.114c3.419,0.838,6.802,1.728,10.129,2.679c3.504,1.001,7.216,2.131,11.09,3.365
		L207.24,344.886z M198.377,325.853c-3.422-0.978-6.902-1.892-10.419-2.751l1.816-13.957c7.066,2.041,14.117,4.125,21.067,6.236
		l-1.677,13.74C205.401,327.926,201.789,326.828,198.377,325.853z M232.118,349.635c-7.276-1.896-14.862-3.462-22.892-4.517
		l1.63-13.354c7.008,2.263,14.524,4.854,22.351,7.676L232.118,349.635z M211.103,329.741l1.68-13.77
		c7.565,2.31,15,4.651,22.182,7.002l-1.54,14.419C225.606,334.578,218.1,331.995,211.103,329.741z M254.594,356.718
		c-6.613-2.406-13.413-4.652-20.519-6.577l1.068-10.001c6.643,2.41,13.49,4.976,20.421,7.635L254.594,356.718z M235.362,338.093
		l1.546-14.479c7.137,2.353,14.012,4.714,20.51,7.063l-1.631,15.042C248.852,343.062,242.004,340.5,235.362,338.093z
		 M276.188,365.174c-6.439-2.632-12.954-5.268-19.658-7.751l0.966-8.907c6.551,2.524,13.164,5.126,19.737,7.753L276.188,365.174z
		 M257.718,346.46l1.635-15.08c5.92,2.164,11.516,4.316,16.682,6.439c1.074,0.441,2.143,0.882,3.207,1.32l-1.768,15.073
		C270.892,351.585,264.273,348.983,257.718,346.46z M298.92,374.233c-6.982-2.617-13.762-5.39-20.483-8.139
		c-0.109-0.045-0.219-0.09-0.328-0.134l1.047-8.922c7.021,2.814,13.981,5.65,20.758,8.447L298.92,374.233z M279.397,354.982
		l1.765-15.048c7.128,2.947,14.03,5.833,20.673,8.638l-1.686,14.847C293.37,360.624,286.413,357.791,279.397,354.982z
		 M319.782,381.199c-6.537-1.873-12.817-3.993-18.932-6.247l0.985-8.674c6.494,2.685,12.804,5.326,18.818,7.867L319.782,381.199z
		 M302.07,364.212l1.684-14.829c6.595,2.791,12.923,5.497,18.959,8.101l-1.804,14.599
		C314.883,369.539,308.569,366.897,302.07,364.212z M341.538,386.165c-6.905-1.162-13.482-2.668-19.809-4.417l0.84-6.793
		c6.914,2.926,13.414,5.708,19.316,8.255L341.538,386.165z M342.129,381.137c-5.911-2.549-12.402-5.326-19.305-8.245l1.802-14.582
		c6.804,2.941,13.223,5.745,19.2,8.379L342.129,381.137z M344.07,364.611c-5.98-2.634-12.392-5.434-19.189-8.37l2.452-19.841
		l19.213,7.133L344.07,364.611z M346.787,341.488l-19.201-7.128l2.728-22.075l19.022,7.497L346.787,341.488z M369.898,350.069
		l-21.182-7.864l2.545-21.663l20.627,8.13L369.898,350.069z M372.082,326.598l-20.579-8.111l2.607-22.191l20.028,8.198
		L372.082,326.598z M393.437,335.015l-19.417-7.653l2.053-22.076l19.267,7.886L393.437,335.015z M395.522,311.084l-19.255-7.881
		l1.983-21.321l19.122,7.964L395.522,311.084z M397.555,287.755l-19.11-7.959l1.62-17.417l18.993,8.126L397.555,287.755z
		 M399.24,268.408l-18.981-8.121l1.44-15.484l18.886,8.167L399.24,268.408z M400.768,250.871l-18.874-8.162l1.656-17.804
		l18.781,8.022L400.768,250.871z M402.514,230.83l-18.769-8.017l1.801-19.355l18.678,7.749L402.514,230.83z M404.406,209.118
		l-18.666-7.745l2.003-21.537l18.545,7.678L404.406,209.118z"/>
</g>
<g id="Ball">
	<g>
		<g>
			<defs>
				
					<ellipse id="XMLID_8_" transform="matrix(0.7071 -0.7071 0.7071 0.7071 -74.1193 134.5573)" cx="125.365" cy="156.749" rx="20.601" ry="20.601"/>
			</defs>
			<use xlink:href="#XMLID_8_"  style="overflow:visible;fill:#FFFFFF;"/>
			<clipPath id="XMLID_00000075158809821850754540000003553635669276458640_">
				<use xlink:href="#XMLID_8_"  style="overflow:visible;"/>
			</clipPath>
			<path style="clip-path:url(#XMLID_00000075158809821850754540000003553635669276458640_);fill:#C6FF00;" d="M133.494,137.819
				c2.07,3.212,3.284,7.028,3.284,11.133c0,11.378-9.223,20.601-20.601,20.601c-2.888,0-5.634-0.599-8.128-1.672
				c3.666,5.69,10.044,9.468,17.316,9.468c11.378,0,20.601-9.223,20.601-20.601C145.966,148.259,140.828,140.973,133.494,137.819z"
				/>
			<path style="opacity:0.5;clip-path:url(#XMLID_00000075158809821850754540000003553635669276458640_);fill:#FFFFFF;" d="
				M133.494,137.819c2.07,3.212,3.284,7.028,3.284,11.133c0,11.378-9.223,20.601-20.601,20.601c-2.888,0-5.634-0.599-8.128-1.672
				c3.666,5.69,10.044,9.468,17.316,9.468c11.378,0,20.601-9.223,20.601-20.601C145.966,148.259,140.828,140.973,133.494,137.819z"
				/>
			<use xlink:href="#XMLID_8_"  style="overflow:visible;fill:none;stroke:#263238;stroke-miterlimit:10;"/>
		</g>
		<path style="fill:#263238;stroke:#263238;stroke-miterlimit:10;" d="M128.535,146.547l-0.594,9.211l-9.607,2.575l-4.556-7.329
			l5.745-7.428L128.535,146.547z M142.203,158.036l-7.428,3.268c0,0-1.882,6.933-2.278,8.617c0,0,3.962,1.486,6.141,1.585
			c0,0,4.061-4.259,5.051-7.131C143.688,164.375,142.995,159.522,142.203,158.036z M124.375,172.893c0,0-6.141-4.556-7.626-6.042
			c0,0-5.249,0.891-6.636,0.891c0,0,0.991,3.467,2.971,5.844c0,0,3.962,2.872,8.518,3.07L124.375,172.893z M118.531,138.723
			c0,0,2.78-1.608,6.39-2.564c-3.889,0.082-7.51,1.241-10.582,3.191C115.611,139.016,117.126,138.723,118.531,138.723z
			 M142.005,149.717l2.054-1.626c-1.804-3.889-4.785-7.118-8.486-9.234l-1.689-0.233c0,0,1.783,3.962,1.486,5.249
			C135.369,143.873,139.826,146.943,142.005,149.717z M105.163,160.788c0.512,0.061,0.889-0.078,0.889-0.078
			c-0.198-4.16,1.585-8.32,1.585-8.32c-0.353-1.199-0.605-3.552-0.721-4.808c-1.375,2.761-2.152,5.872-2.152,9.166
			C104.764,158.132,104.903,159.482,105.163,160.788z"/>
		<line style="fill:none;stroke:#263238;stroke-miterlimit:10;" x1="118.531" y1="138.723" x2="119.522" y2="143.576"/>
		<line style="fill:none;stroke:#263238;stroke-miterlimit:10;" x1="128.535" y1="146.547" x2="135.369" y2="143.873"/>
		<path style="fill:none;stroke:#263238;stroke-miterlimit:10;" d="M142.005,149.717c0,0,0.495,3.764,0.198,8.32"/>
		<line style="fill:none;stroke:#263238;stroke-miterlimit:10;" x1="127.941" y1="155.758" x2="134.775" y2="161.305"/>
		<line style="fill:none;stroke:#263238;stroke-miterlimit:10;" x1="118.333" y1="158.333" x2="116.749" y2="166.851"/>
		<path style="fill:none;stroke:#263238;stroke-miterlimit:10;" d="M124.375,172.893c0,0,6.933-1.981,8.122-2.971"/>
		<line style="fill:none;stroke:#263238;stroke-miterlimit:10;" x1="107.637" y1="152.391" x2="113.777" y2="151.004"/>
		<path style="fill:none;stroke:#263238;stroke-miterlimit:10;" d="M106.052,160.71c0,0,1.288,3.962,4.061,7.032"/>
	</g>
</g>
<g id="Character">
	<g>
		<g>
			<defs>
				<path id="XMLID_1_" d="M356.059,339.381c0,0,19.449,5.604,25.713,8.571c6.263,2.967,28.02,16.153,32.306,19.449
					c4.285,3.297,7.582,12.856,10.549,16.812c2.967,3.956,8.571,13.516,11.867,9.89c3.297-3.626,0-13.516-2.637-18.461
					c-2.637-4.945-7.582-7.582-9.56-10.219c-1.978-2.637-9.889-13.845-16.812-23.405c-6.923-9.56-11.867-14.505-18.46-17.142
					c-6.593-2.637-12.856-2.307-14.505-2.637c-1.648-0.33-7.912-3.626-7.912-3.626S361.663,336.414,356.059,339.381z"/>
			</defs>
			<use xlink:href="#XMLID_1_"  style="overflow:visible;fill:#FFFFFF;"/>
			<clipPath id="XMLID_00000066512634053832279080000013160994814790652069_">
				<use xlink:href="#XMLID_1_"  style="overflow:visible;"/>
			</clipPath>
			<path style="opacity:0.2;clip-path:url(#XMLID_00000066512634053832279080000013160994814790652069_);" d="M424.296,365.423
				c-1.978-2.637-9.889-13.845-16.812-23.405c-6.923-9.56-11.867-14.505-18.46-17.142c-6.593-2.637-12.856-2.307-14.505-2.637
				c-1.648-0.33-7.912-3.626-7.912-3.626s-0.859,3.089-2.264,6.905c3.612,1.184,8.085,2.658,12.98,4.289
				c12.112,4.037,31.677,20.497,34.161,25.466c1.891,3.781-8.985,1.449-16.893-0.156c8.037,4.758,16.912,10.304,19.486,12.284
				c4.285,3.297,7.582,12.856,10.549,16.812c2.967,3.956,8.571,13.516,11.867,9.89c3.297-3.626,0-13.516-2.637-18.46
				S426.274,368.06,424.296,365.423z"/>
			
				<use xlink:href="#XMLID_1_"  style="overflow:visible;fill:none;stroke:#263238;stroke-linecap:round;stroke-linejoin:round;stroke-miterlimit:10;"/>
		</g>
		<path style="fill:#FFFFFF;stroke:#263238;stroke-linecap:round;stroke-linejoin:round;stroke-miterlimit:10;" d="M424.296,365.423
			c-1.978-2.637-9.889-13.845-16.812-23.405c-3.793-5.239-6.993-9.084-10.195-11.931c0.05,1.444,0.049,2.997-0.024,4.679
			c-0.418,9.606-6.786,13.653-11.4,15.331c8.723,4.812,24.616,14.538,28.212,17.304c4.285,3.297,7.582,12.856,10.549,16.812
			c2.967,3.956,8.571,13.516,11.867,9.89c3.297-3.626,0-13.516-2.637-18.46C431.219,370.698,426.274,368.06,424.296,365.423z"/>
		<path style="fill:none;" d="M424.296,365.423c-1.978-2.637-9.889-13.845-16.812-23.405c-6.923-9.56-11.867-14.505-18.46-17.142
			c-6.593-2.637-12.856-2.307-14.505-2.637c-1.648-0.33-7.912-3.626-7.912-3.626s-0.859,3.089-2.264,6.905
			c3.612,1.184,8.085,2.658,12.98,4.289c12.112,4.037,31.677,20.497,34.161,25.466c1.891,3.781-8.985,1.449-16.893-0.156
			c8.037,4.758,16.912,10.304,19.486,12.284c4.285,3.297,7.582,12.856,10.549,16.812c2.967,3.956,8.571,13.516,11.867,9.89
			c3.297-3.626,0-13.516-2.637-18.46S426.274,368.06,424.296,365.423z"/>
		<g>
			<defs>
				<path id="XMLID_2_" d="M424.296,365.423c-1.978-2.637-9.889-13.845-16.812-23.405c-3.793-5.239-6.993-9.084-10.195-11.931
					c0.05,1.444,0.049,2.997-0.024,4.679c-0.418,9.606-6.786,13.653-11.4,15.331c8.723,4.812,24.616,14.538,28.212,17.304
					c4.285,3.297,7.582,12.856,10.549,16.812c2.967,3.956,8.571,13.516,11.867,9.89c3.297-3.626,0-13.516-2.637-18.46
					C431.219,370.698,426.274,368.06,424.296,365.423z"/>
			</defs>
			<use xlink:href="#XMLID_2_"  style="overflow:visible;fill:#C6FF00;"/>
			<clipPath id="XMLID_00000040559125289203128860000016124517025923835299_">
				<use xlink:href="#XMLID_2_"  style="overflow:visible;"/>
			</clipPath>
			<path style="opacity:0.2;clip-path:url(#XMLID_00000040559125289203128860000016124517025923835299_);" d="M433.856,375.642
				c-2.637-4.945-7.582-7.582-9.56-10.219c-1.978-2.637-9.889-13.845-16.812-23.405c-0.456-0.63-0.904-1.238-1.344-1.829
				c-0.115-0.155-0.227-0.3-0.341-0.452c-0.326-0.434-0.651-0.864-0.97-1.277c-0.12-0.156-0.237-0.303-0.356-0.456
				c-0.312-0.399-0.622-0.794-0.927-1.173c-0.111-0.137-0.219-0.269-0.329-0.404c-0.312-0.384-0.623-0.76-0.93-1.124
				c-0.097-0.115-0.193-0.227-0.29-0.34c-0.32-0.375-0.638-0.74-0.954-1.093c-0.08-0.09-0.16-0.179-0.24-0.267
				c-0.335-0.37-0.667-0.728-0.998-1.075c-0.06-0.063-0.12-0.126-0.18-0.188c-0.356-0.369-0.711-0.726-1.065-1.069
				c-0.035-0.034-0.07-0.069-0.104-0.102c-0.389-0.375-0.777-0.736-1.165-1.081c-0.001-0.001-0.001-0.001-0.002-0.002
				c0.05,1.444,0.049,2.997-0.024,4.679c-0.099,2.279-0.541,4.236-1.207,5.932c7.578,5.687,14.066,11.854,15.426,14.576
				c1.891,3.781-8.985,1.449-16.893-0.156c0.01,0.006,0.02,0.012,0.03,0.018c0.453,0.268,0.909,0.54,1.367,0.812
				c0.077,0.046,0.154,0.092,0.231,0.138c0.95,0.567,1.904,1.14,2.852,1.713c0.065,0.039,0.13,0.079,0.195,0.118
				c0.446,0.27,0.891,0.54,1.333,0.809c0.03,0.018,0.06,0.037,0.09,0.055c0.48,0.293,0.956,0.584,1.428,0.873
				c0.035,0.022,0.07,0.043,0.105,0.064c0.437,0.268,0.869,0.534,1.296,0.798c0.048,0.03,0.097,0.06,0.145,0.09
				c0.455,0.282,0.905,0.561,1.346,0.835c0.02,0.012,0.038,0.024,0.058,0.036c0.402,0.251,0.796,0.497,1.183,0.74
				c0.08,0.05,0.16,0.1,0.239,0.15c0.808,0.509,1.58,0.998,2.305,1.463c0.079,0.051,0.156,0.1,0.234,0.15
				c0.308,0.198,0.608,0.392,0.897,0.579c0.048,0.031,0.098,0.064,0.146,0.095c0.327,0.213,0.64,0.418,0.94,0.616
				c0.061,0.04,0.118,0.079,0.178,0.118c0.246,0.163,0.482,0.321,0.707,0.473c0.057,0.038,0.115,0.077,0.17,0.115
				c0.261,0.176,0.508,0.345,0.736,0.504c0.035,0.024,0.066,0.046,0.101,0.07c0.189,0.132,0.364,0.255,0.527,0.373
				c0.052,0.037,0.103,0.074,0.152,0.109c0.182,0.132,0.352,0.257,0.496,0.368c4.285,3.297,7.582,12.856,10.549,16.812
				c2.967,3.956,8.571,13.516,11.867,9.89c0.824-0.907,1.236-2.205,1.349-3.719C438.183,385.841,435.834,379.351,433.856,375.642z"
				/>
			
				<use xlink:href="#XMLID_2_"  style="overflow:visible;fill:none;stroke:#263238;stroke-linecap:round;stroke-linejoin:round;stroke-miterlimit:10;"/>
		</g>
		<path style="fill:#263238;stroke:#263238;stroke-linecap:round;stroke-linejoin:round;stroke-miterlimit:10;" d="M424.956,373.005
			c-1.008,2.622-4.607,0.678-7.25-1.226c2.616,4.186,4.849,9.673,6.92,12.434c2.967,3.956,8.571,13.516,11.867,9.89
			c3.297-3.626,0-13.516-2.637-18.46c-2.637-4.945-7.582-7.582-9.56-10.219C424.296,365.423,426.604,368.72,424.956,373.005z"/>
		<g>
			<defs>
				<path id="XMLID_3_" d="M311.226,349.6c0,0,18.461,15.164,29.009,17.142c10.549,1.978,13.186-8.571,16.153-16.812
					c2.967-8.241,3.297-15.823,3.297-15.823l-9.56-2.637c0,0-2.637,5.274-5.274,6.923c-2.637,1.648-7.582-2.967-10.878-1.978
					C330.676,337.403,316.501,347.952,311.226,349.6z"/>
			</defs>
			<use xlink:href="#XMLID_3_"  style="overflow:visible;fill:#FFFFFF;"/>
			<clipPath id="XMLID_00000069381099555110722310000016218882950560516241_">
				<use xlink:href="#XMLID_3_"  style="overflow:visible;"/>
			</clipPath>
			<path style="opacity:0.2;clip-path:url(#XMLID_00000069381099555110722310000016218882950560516241_);" d="M311.226,349.6
				c0,0,18.461,15.164,29.009,17.142c10.549,1.978,13.186-8.571,16.153-16.812c2.967-8.241,3.297-15.823,3.297-15.823l-9.56-2.637
				c0,0-2.637,5.274-5.274,6.923c-2.637,1.648-7.582-2.967-10.878-1.978C330.676,337.403,316.501,347.952,311.226,349.6z"/>
			
				<path style="clip-path:url(#XMLID_00000069381099555110722310000016218882950560516241_);fill:none;stroke:#263238;stroke-linecap:round;stroke-linejoin:round;stroke-miterlimit:10;" d="
				M347.072,348.519c0,0,1.158,1.448,1.448,6.369"/>
			
				<use xlink:href="#XMLID_3_"  style="overflow:visible;fill:none;stroke:#263238;stroke-linecap:round;stroke-linejoin:round;stroke-miterlimit:10;"/>
		</g>
		<g>
			<defs>
				<path id="XMLID_4_" d="M271.998,310.372c0,0,7.252,10.878,9.56,14.175c2.307,3.297,24.724,29.668,24.724,29.668
					s4.615,0.659,13.516-2.307c8.9-2.967,16.153-10.549,16.153-10.549l8.571,7.582c0,0,10.219-2.637,17.471-8.901
					c7.252-6.263,8.241-23.076,8.241-23.076s-16.153-11.538-21.757-17.471c-5.604-5.934-17.142-12.527-22.746-13.845
					c-5.604-1.319-10.879-2.308-10.879-2.308s-5.274,10.878-13.845,16.153c-8.571,5.274-15.164,6.263-19.449,7.252
					C277.272,307.734,271.668,306.416,271.998,310.372z"/>
			</defs>
			<use xlink:href="#XMLID_4_"  style="overflow:visible;fill:#C6FF00;"/>
			<clipPath id="XMLID_00000099636890791847437470000006894089405498730896_">
				<use xlink:href="#XMLID_4_"  style="overflow:visible;"/>
			</clipPath>
			<path style="opacity:0.2;clip-path:url(#XMLID_00000099636890791847437470000006894089405498730896_);" d="M360.242,329.807
				l6.211-0.621l-2.795-1.553c0,0-2.795-1.863-8.074-4.969c-5.28-3.106-20.497-12.733-20.497-12.733l15.838,5.901
				c0,0-11.18-8.696-21.739-15.528c-10.559-6.832-16.149-5.279-16.149-5.279l-2.258-5.079c2.619-3.609,4.073-6.605,4.073-6.605
				s5.274,0.989,10.879,2.308c5.604,1.319,17.142,7.912,22.746,13.845c5.604,5.934,21.757,17.471,21.757,17.471
				s-0.56,9.509-3.923,16.889L360.242,329.807z M308.068,327.323c-4.969-3.106-9.006-4.658-9.006-4.658s8.075,6.522,14.907,9.938
				c6.832,3.416,11.801,5.59,11.801,5.59l-16.46,0.311l16.149,6.211c0,0-11.691,7.534-16.775,9.531
				c2.212-0.115,5.93-0.61,11.112-2.338c8.901-2.967,16.153-10.549,16.153-10.549l-11.164-7.944
				C321.846,332.627,312.249,329.936,308.068,327.323z M318.808,329.162l5.978,4.253c0.554,0.149,0.874,0.23,0.874,0.23
				L318.808,329.162z"/>
			
				<use xlink:href="#XMLID_4_"  style="overflow:visible;fill:none;stroke:#263238;stroke-linecap:round;stroke-linejoin:round;stroke-miterlimit:10;"/>
		</g>
		<path style="fill:#263238;" d="M334.857,295.417c-6.82-3.41-18.129-4.734-24.26-5.221c-0.897,1.22-1.924,2.502-3.071,3.758
			c4.316,0.25,18.2,1.32,25.562,5.001c3.345,1.672,7.926,5.855,12.775,10.284c7.215,6.59,15.284,13.947,23.01,16.733
			c0.319-1.402,0.567-2.736,0.758-3.93c-6.801-2.668-14.343-9.553-21.101-15.725C343.253,301.498,338.694,297.336,334.857,295.417z"
			/>
		<g>
			<defs>
				<path id="XMLID_6_" d="M240.22,235.542c0,0-9.138-2.15-14.245-2.15c-5.107,0-13.707,0-13.707,0l-21.233-10.213l-22.039-37.091
					l-8.332,5.107c0,0,8.601,20.427,10.751,29.296c2.15,8.87,11.288,19.352,12.095,19.889c0.806,0.538,17.47,8.063,26.071,11.288
					c8.601,3.225,22.577,8.332,22.577,8.332s13.707,15.589,18.545,22.577s14.514,22.039,16.395,25.265
					c1.881,3.225,8.063,5.375,11.289,4.3c3.225-1.075,10.213-4.032,15.051-4.032c4.838,0,12.901-2.419,17.47-6.182
					c4.569-3.763,8.063-13.976,6.988-16.933c-1.075-2.957-3.494-4.569-5.644-8.063c-2.15-3.494-15.589-30.64-15.589-30.64
					s16.664,0,32.253-5.375l-5.107,8.332l10.751,4.3c0,0,12.095-12.632,14.514-19.083c2.419-6.451,3.494-14.514,1.344-15.589
					c-2.15-1.075-7.794,0.269-13.439,0.806c-5.644,0.538-22.846,4.3-27.952,4.3c-5.107,0-18.814-1.881-24.458,0.269
					c-5.644,2.15-13.707,6.451-18.008,7.526c-4.3,1.075-8.063,2.15-10.213,2.15C254.196,233.929,240.22,235.542,240.22,235.542z"/>
			</defs>
			<use xlink:href="#XMLID_6_"  style="overflow:visible;fill:#FFFFFF;"/>
			<clipPath id="XMLID_00000124124414772160274310000004543320668321136008_">
				<use xlink:href="#XMLID_6_"  style="overflow:visible;"/>
			</clipPath>
			<path style="opacity:0.2;clip-path:url(#XMLID_00000124124414772160274310000004543320668321136008_);" d="M326.888,244.224
				l1.943-3.171C328.291,242.277,327.617,243.514,326.888,244.224z M276.702,245.335c0,0,7.764,4.969,10.559,6.832
				c2.795,1.863,21.118,27.019,21.118,27.019l-26.087-12.733l31.056,21.118l-36.025-7.453l37.267,12.112l-28.261-1.553
				c0,0,30.435,3.106,27.329,6.522c-3.106,3.416-9.317,6.522-16.77,6.832c-7.453,0.311-16.46-4.037-16.46-4.037
				s9.006,5.901,5.59,6.211c-3.416,0.311-11.801,3.416-16.46-2.174c-4.658-5.59-34.161-45.652-34.161-45.652l-12.112-8.075
				l1.863,3.416c0,0-36.646-12.422-41.925-17.702c-2.826-2.826-8.143-10.99-12.475-17.969c0.259,0.879,0.486,1.703,0.665,2.44
				c2.15,8.869,11.288,19.352,12.095,19.889c0.806,0.538,17.47,8.063,26.071,11.288c8.601,3.225,22.577,8.332,22.577,8.332
				s13.707,15.589,18.545,22.577s14.514,22.039,16.395,25.265c1.881,3.225,8.063,5.375,11.289,4.3
				c3.225-1.075,10.213-4.032,15.051-4.032c4.838,0,12.901-2.419,17.47-6.182c4.569-3.763,8.063-13.976,6.988-16.933
				c-1.075-2.956-3.494-4.569-5.644-8.063c-2.15-3.494-15.589-30.64-15.589-30.64s16.644,0,32.225-5.366
				c0.748-1.718,1.23-3.355,1.23-3.355l1.242-3.106c0,0-16.46,8.385-25.776,8.696C296.267,243.472,276.702,245.335,276.702,245.335z
				 M350.417,218.878c-0.129-0.065-0.273-0.12-0.427-0.168c0.07,0.647-0.004,1.434-0.307,2.402
				c-1.553,4.969-13.043,27.329-13.043,27.329s0.228,0.944,0.586,2.218c3.706-4.116,10.152-11.671,11.848-16.192
				C351.492,228.016,352.567,219.953,350.417,218.878z"/>
			
				<use xlink:href="#XMLID_6_"  style="overflow:visible;fill:none;stroke:#263238;stroke-linecap:round;stroke-linejoin:round;stroke-miterlimit:10;"/>
		</g>
		<path style="fill:#263238;stroke:#263238;stroke-linecap:round;stroke-linejoin:round;stroke-miterlimit:10;" d="M162.5,195.652
			l9.606-4.329l-3.111-5.235l-8.332,5.107C160.663,191.194,161.403,192.952,162.5,195.652z"/>
		<path style="fill:#263238;stroke:#263238;stroke-linecap:round;stroke-linejoin:round;stroke-miterlimit:10;" d="M323.809,249.249
			c0,0,0-3.763,4.3-4.838c4.3-1.075,9.407,1.344,10.751,2.688s-1.075,5.376-2.957,8.601
			C334.022,258.925,324.884,253.818,323.809,249.249z"/>
		<g>
			<defs>
				<path id="XMLID_5_" d="M312.251,276.933c-2.15-3.494-15.589-30.64-15.589-30.64s9.555-0.002,20.961-2.335
					c-1.87-4.094-4.842-13.527,2.535-21.455c-4.678,0.814-8.981,1.483-11.133,1.483c-5.107,0-18.814-1.881-24.458,0.269
					c-5.644,2.15-13.707,6.451-18.008,7.526c-4.3,1.075-8.063,2.15-10.213,2.15c-2.15,0-16.126,1.613-16.126,1.613
					s-9.138-2.15-14.245-2.15c-5.107,0-13.707,0-13.707,0l-6.497-3.125c-0.582,5.468-0.71,12.782,1.066,20.338
					c0.977,0.389,1.9,0.747,2.744,1.064c8.601,3.225,22.577,8.332,22.577,8.332s13.707,15.589,18.545,22.577
					s14.514,22.039,16.395,25.265c1.882,3.225,8.063,5.375,11.289,4.3c3.225-1.075,10.214-4.032,15.051-4.032
					s12.901-2.419,17.47-6.182c4.569-3.763,8.063-13.976,6.988-16.933C316.82,282.039,314.401,280.427,312.251,276.933z"/>
			</defs>
			<use xlink:href="#XMLID_5_"  style="overflow:visible;fill:#C6FF00;"/>
			<clipPath id="XMLID_00000103229452775996692690000010405773318770755738_">
				<use xlink:href="#XMLID_5_"  style="overflow:visible;"/>
			</clipPath>
			<path style="opacity:0.2;clip-path:url(#XMLID_00000103229452775996692690000010405773318770755738_);" d="M318.044,285.632
				c-0.032-0.238-0.082-0.451-0.149-0.636c-0.134-0.369-0.29-0.718-0.463-1.052c-1.213-2.337-3.3-3.954-5.181-7.011
				c-0.572-0.93-1.947-3.541-3.651-6.862c-0.298-0.58-0.602-1.174-0.918-1.793c-0.212-0.416-0.428-0.84-0.646-1.27
				c-0.326-0.642-0.66-1.3-0.996-1.964c-0.227-0.449-0.456-0.901-0.685-1.356c-0.491-0.973-0.985-1.954-1.476-2.931
				c-0.645-1.283-1.281-2.552-1.896-3.78c-0.867-1.733-1.686-3.373-2.411-4.828c-0.362-0.726-0.698-1.402-1.007-2.022
				c-0.155-0.312-0.303-0.608-0.442-0.889c-0.115-0.231-0.224-0.452-0.328-0.66c-0.706-1.421-1.134-2.285-1.134-2.285
				s0.039,0,0.104-0.001c0.003,0,0.006,0,0.009,0c0.143-0.001,0.424-0.005,0.822-0.014c0.013,0,0.025-0.001,0.038-0.001
				c2.495-0.063,9.518-0.373,17.851-1.905c0.011-0.002,0.022-0.004,0.033-0.006c0.685-0.126,1.38-0.261,2.081-0.404
				c0.008-0.002,0.016-0.003,0.023-0.005c-0.389-0.853-0.826-1.939-1.207-3.193c-3.822,1.29-7.724,2.294-10.832,2.397
				c-9.317,0.311-28.882,2.174-28.882,2.174s7.764,4.969,10.559,6.832c2.795,1.863,21.118,27.019,21.118,27.019l-26.087-12.733
				l31.056,21.118l-36.025-7.453l37.267,12.112l-28.261-1.553c0,0,30.435,3.106,27.329,6.522c-3.106,3.416-9.317,6.522-16.77,6.832
				c-7.453,0.311-16.46-4.037-16.46-4.037s9.006,5.901,5.59,6.211c-3.416,0.311-11.801,3.416-16.46-2.174
				c-4.658-5.59-34.161-45.652-34.161-45.652l-12.112-8.075l1.863,3.416c0,0-9.195-3.117-19.036-6.892
				c0.198,1.248,0.425,2.506,0.723,3.775c0.455,0.181,0.896,0.354,1.325,0.521c0.068,0.026,0.135,0.052,0.202,0.078
				c0.419,0.162,0.828,0.319,1.217,0.465c8.601,3.225,22.577,8.332,22.577,8.332s7.71,8.769,13.607,16.101
				c0.737,0.917,1.446,1.811,2.107,2.662c0.441,0.568,0.861,1.117,1.255,1.641c0.197,0.262,0.387,0.518,0.57,0.767
				c0.366,0.498,0.703,0.968,1.005,1.405c0.756,1.092,1.63,2.381,2.574,3.79c0.378,0.564,0.766,1.147,1.163,1.745
				c1.389,2.092,2.878,4.362,4.333,6.601c0.416,0.64,0.829,1.277,1.236,1.907c1.222,1.89,2.392,3.713,3.427,5.34
				c0.517,0.813,1.001,1.577,1.441,2.275c0.146,0.233,0.288,0.458,0.424,0.676c0.545,0.87,1.005,1.614,1.356,2.192
				c0.175,0.289,0.323,0.537,0.441,0.739c0.588,1.008,1.596,1.911,2.802,2.643c0.482,0.293,0.997,0.559,1.529,0.793
				c0.266,0.117,0.536,0.226,0.809,0.327c1.092,0.403,2.226,0.672,3.288,0.773s2.054,0.034,2.86-0.235
				c0.403-0.134,0.865-0.298,1.374-0.482c0.509-0.184,1.066-0.387,1.658-0.602c1.184-0.428,2.511-0.899,3.889-1.336
				c2.755-0.874,5.711-1.613,8.13-1.613c2.117,0,4.85-0.463,7.639-1.299c0.54-0.162,1.082-0.343,1.622-0.532
				c0.497-0.174,0.991-0.36,1.482-0.556c2.514-1.006,4.901-2.29,6.727-3.795c0.571-0.47,1.126-1.042,1.656-1.687
				c0.796-0.968,1.539-2.102,2.206-3.313c0.445-0.807,0.855-1.648,1.225-2.496c0.37-0.848,0.699-1.703,0.981-2.538
				c0.141-0.418,0.27-0.83,0.386-1.235c0.465-1.618,0.727-3.104,0.73-4.243C318.092,286.133,318.077,285.87,318.044,285.632z"/>
			
				<use xlink:href="#XMLID_5_"  style="overflow:visible;fill:none;stroke:#263238;stroke-linecap:round;stroke-linejoin:round;stroke-miterlimit:10;"/>
		</g>
		<path style="fill:#263238;stroke:#263238;stroke-linecap:round;stroke-linejoin:round;stroke-miterlimit:10;" d="M266.56,231.779
			c-4.3,1.075-8.063,2.15-10.213,2.15c-1.356,0-7.41,0.641-11.701,1.115c-0.91,4.134-1.59,12.227,6.325,14.206
			c10.22,2.555,15.337-7.035,18.358-18.378C268.301,231.263,267.365,231.577,266.56,231.779z"/>
		<g>
			<path style="fill:#263238;stroke:#263238;stroke-linecap:round;stroke-linejoin:round;stroke-miterlimit:10;" d="
				M232.963,206.245c0,0-5.107,0.538-7.526-4.569c-2.419-5.107,6.451-10.482,8.601-9.945c2.15,0.537,2.688,3.225,4.032,2.688
				c1.344-0.538,2.688-4.032,8.063-4.032c5.376,0,2.15,1.881,3.763,4.838c1.613,2.957,9.945,1.881,12.632,6.451
				c2.688,4.569,2.419,11.557,1.613,14.514c-0.806,2.956-2.419,7.526-7.526,6.451c-5.107-1.075-8.063-12.095-9.945-14.783
				C244.789,205.17,232.963,206.245,232.963,206.245z"/>
			<g>
				<g>
					<defs>
						<path id="XMLID_7_" d="M231.35,206.245c0,0-1.881,9.407-1.613,16.933c0.269,7.526,1.881,13.439,4.569,14.245
							c2.688,0.806,9.676,0.806,9.676,0.806s5.376,8.332,9.138,8.87c3.763,0.538,11.826-8.87,12.632-12.095
							c0.806-3.225-3.494-9.945-3.494-9.945s3.494-3.225,3.225-7.257c-0.269-4.032-3.763-6.182-5.644-4.569
							c-1.881,1.613-2.688,4.569-2.688,4.569s-2.419,0-2.688-1.075s0.806-0.806-0.269-2.956c-1.075-2.15-5.107-1.881-4.838-4.3
							c0.269-2.419,2.15-3.225,0.806-4.569c-1.344-1.344-5.107-2.419-9.407-2.419C236.457,202.482,231.35,206.245,231.35,206.245z"
							/>
					</defs>
					<use xlink:href="#XMLID_7_"  style="overflow:visible;fill:#FFFFFF;"/>
					<clipPath id="XMLID_00000077325310530883465310000004651119166741395356_">
						<use xlink:href="#XMLID_7_"  style="overflow:visible;"/>
					</clipPath>
					<path style="opacity:0.2;clip-path:url(#XMLID_00000077325310530883465310000004651119166741395356_);" d="M265.753,235.004
						c0.806-3.225-3.494-9.945-3.494-9.945s3.494-3.225,3.225-7.257c-1.826,6.415-6.795,6.104-6.795,6.104s-1.863,5.279-9.006,8.696
						c-7.143,3.416-14.596,4.037-17.391,2.795c-0.049-0.022-0.091-0.03-0.139-0.049c0.613,1.1,1.332,1.828,2.154,2.074
						c2.688,0.806,9.676,0.806,9.676,0.806s5.376,8.332,9.138,8.87C256.884,247.636,264.947,238.229,265.753,235.004z"/>
					
						<use xlink:href="#XMLID_7_"  style="overflow:visible;fill:none;stroke:#263238;stroke-linecap:round;stroke-linejoin:round;stroke-miterlimit:10;"/>
				</g>
				<g>
					<polyline style="fill:none;stroke:#263238;stroke-linecap:round;stroke-linejoin:round;stroke-miterlimit:10;" points="
						234.845,213.502 231.35,219.415 234.307,220.221 					"/>
					<path style="fill:none;stroke:#263238;stroke-linecap:round;stroke-linejoin:round;stroke-miterlimit:10;" d="M233.501,224.253
						c0,0,1.344-1.344,4.3-0.806"/>
					<path style="fill:none;stroke:#263238;stroke-linecap:round;stroke-linejoin:round;stroke-miterlimit:10;" d="M237.801,211.083
						c0,0,1.881-2.688,5.375-2.957"/>
					<path style="fill:none;stroke:#263238;stroke-linecap:round;stroke-linejoin:round;stroke-miterlimit:10;" d="M231.082,211.352
						c0,0,1.613-1.344,3.225,0"/>
					<path style="fill:#263238;" d="M240.354,211.889c0,0.891-0.421,1.613-0.941,1.613s-0.941-0.722-0.941-1.613
						c0-0.891,0.421-1.613,0.941-1.613S240.354,210.999,240.354,211.889z"/>
					<path style="fill:#263238;" d="M232.56,212.696c0,0.891-0.421,1.613-0.941,1.613c-0.52,0-0.941-0.722-0.941-1.613
						s0.421-1.613,0.941-1.613C232.139,211.083,232.56,211.805,232.56,212.696z"/>
				</g>
			</g>
		</g>
		<g>
			<path style="fill:#C6FF00;stroke:#263238;stroke-linecap:round;stroke-linejoin:round;stroke-miterlimit:10;" d="
				M317.089,254.087c0,0-3.225,1.613-3.494,3.494c-0.269,1.881,2.15,3.763,5.107,4.838c2.956,1.075,4.569-0.538,3.763-3.225
				C321.658,256.506,317.089,254.087,317.089,254.087z"/>
			<path style="fill:#C6FF00;stroke:#263238;stroke-linecap:round;stroke-linejoin:round;stroke-miterlimit:10;" d="
				M337.689,251.954c0.12-1.482-0.76-2.878-2.161-3.374c-2.191-0.775-5.844-1.749-10.375-1.749c-7.526,0-8.87,0-9.138,4.569
				c-0.269,4.569,0,7.257,2.688,8.063c2.688,0.806,12.364,1.344,15.051,0.806C336.026,259.814,337.338,256.284,337.689,251.954z"/>
			<path style="fill:none;stroke:#263238;stroke-linecap:round;stroke-linejoin:round;stroke-miterlimit:10;" d="M321.121,259.731
				c0,0-1.344-8.601,0-12.632"/>
			<path style="fill:none;stroke:#263238;stroke-linecap:round;stroke-linejoin:round;stroke-miterlimit:10;" d="M325.959,260.269
				c0,0-2.15-9.945,0.269-13.439"/>
			<path style="fill:none;stroke:#263238;stroke-linecap:round;stroke-linejoin:round;stroke-miterlimit:10;" d="M330.259,260.538
				c0,0-0.806-8.063,1.075-12.632"/>
		</g>
		<path style="fill:none;stroke:#263238;stroke-linecap:round;stroke-linejoin:round;stroke-miterlimit:10;" d="M328.915,240.917
			c0,0,3.763-11.289,5.913-14.245"/>
		<g>
			<path style="fill:#C6FF00;stroke:#263238;stroke-linecap:round;stroke-linejoin:round;stroke-miterlimit:10;" d="
				M169.934,188.653c0,0,0-8.195,0-12.042c0-3.847-3.178-9.032-4.349-11.541c-1.171-2.509-1.84-2.676-3.512-2.341
				c-1.673,0.335-1.505,3.011-1.505,3.011s-1.338-3.011-2.843-4.683c-1.505-1.673-8.363-1.171-9.868,1.84
				c-1.505,3.011-1.84,10.872,0.502,16.558c2.342,5.687,6.69,9.366,8.363,10.704c1.673,1.338,4.349,2.676,4.349,2.676
				L169.934,188.653z"/>
			<path style="fill:none;stroke:#263238;stroke-linecap:round;stroke-linejoin:round;stroke-miterlimit:10;" d="M160.567,165.739
				l2.342,8.697c0,0-3.512,1.505-3.011,5.352"/>
			<path style="fill:none;stroke:#263238;stroke-linecap:round;stroke-linejoin:round;stroke-miterlimit:10;" d="M151.034,175.105
				c0,0,3.847-3.178,9.701-3.847"/>
			
				<line style="fill:none;stroke:#263238;stroke-linecap:round;stroke-linejoin:round;stroke-miterlimit:10;" x1="154.212" y1="160.387" x2="158.226" y2="171.425"/>
			
				<line style="fill:none;stroke:#263238;stroke-linecap:round;stroke-linejoin:round;stroke-miterlimit:10;" x1="149.528" y1="161.557" x2="154.044" y2="172.763"/>
			<path style="fill:none;stroke:#263238;stroke-linecap:round;stroke-linejoin:round;stroke-miterlimit:10;" d="M147.02,166.073
				c0,0,1.171,0,1.84,2.676c0.669,2.676,2.676,5.519,2.676,5.519"/>
		</g>
		<path style="fill:none;stroke:#263238;stroke-linecap:round;stroke-linejoin:round;stroke-miterlimit:10;" d="M304.963,325.865
			c0,0,10.878,5.934,18.131,6.263"/>
		
			<line style="fill:none;stroke:#263238;stroke-linecap:round;stroke-linejoin:round;stroke-miterlimit:10;" x1="335.95" y1="341.359" x2="317.251" y2="327.674"/>
		<polyline style="fill:none;stroke:#263238;stroke-linecap:round;stroke-linejoin:round;stroke-miterlimit:10;" points="
			223.869,246.419 232.157,260 213.32,242.464 		"/>
		<polyline style="fill:none;stroke:#263238;stroke-linecap:round;stroke-linejoin:round;stroke-miterlimit:10;" points="
			288.81,244.771 296.662,246.292 282.547,247.408 		"/>
	</g>
</g>
</svg>
