<svg width="1440" height="1024" viewBox="0 0 1440 1024" fill="none" xmlns="http://www.w3.org/2000/svg">
<rect opacity="0.77" x="-19" y="-25" width="1478" height="1073" fill="url(#paint0_linear_65_429)"/>
<path opacity="0.19" d="M609.381 767.896C613.448 766.17 618.145 768.067 619.871 772.135L796.457 1188.14C798.183 1192.21 796.286 1196.91 792.219 1198.63L377.201 1374.8C373.134 1376.53 368.438 1374.63 366.712 1370.56L190.126 954.551C188.399 950.484 190.297 945.787 194.364 944.061L609.381 767.896Z" fill="#1C4124"/>
<path opacity="0.19" d="M1172.51 358.694C1170.57 354.724 1172.22 349.934 1176.19 347.994L1598.37 141.745C1602.34 139.805 1607.13 141.451 1609.07 145.421L1814.82 566.594C1816.76 570.564 1815.12 575.354 1811.15 577.294L1388.97 783.543C1385 785.483 1380.21 783.837 1378.27 779.867L1172.51 358.694Z" fill="#28AD44"/>
<rect opacity="0.19" x="-273.647" y="219.219" width="395.405" height="394.494" rx="8" transform="rotate(-38.1443 -273.647 219.219)" fill="#52FF76"/>
<defs>
<linearGradient id="paint0_linear_65_429" x1="-19" y1="1048" x2="1459" y2="-24.9999" gradientUnits="userSpaceOnUse">
<stop stop-color="#28AD44"/>
<stop offset="1" stop-color="#7AAB40"/>
</linearGradient>
</defs>
</svg>
