<svg width="430" height="932" viewBox="0 0 430 932" fill="none" xmlns="http://www.w3.org/2000/svg">
<rect opacity="0.77" width="430" height="932" fill="url(#paint0_linear_282_159)"/>
<path opacity="0.19" d="M-136.488 832.076C-138.428 828.106 -136.782 823.315 -132.812 821.376L55.2279 729.512C59.1978 727.572 63.9882 729.218 65.9276 733.188L157.564 920.761C159.503 924.731 157.857 929.522 153.888 931.461L-34.1523 1023.33C-38.1221 1025.26 -42.9125 1023.62 -44.852 1019.65L-136.488 832.076Z" fill="#28AD44"/>
<rect opacity="0.19" x="-55" y="36.2363" width="183.336" height="182.914" rx="8" transform="rotate(-38.1443 -55 36.2363)" fill="#52FF76"/>
<path opacity="0.19" d="M437.895 269.126C441.962 267.399 446.658 269.297 448.385 273.364L526.909 458.355C528.635 462.422 526.737 467.118 522.67 468.845L338.14 547.173C334.073 548.9 329.376 547.002 327.65 542.935L249.126 357.944C247.4 353.877 249.297 349.181 253.364 347.454L437.895 269.126Z" fill="#1C4124"/>
<defs>
<linearGradient id="paint0_linear_282_159" x1="6.4075e-06" y1="932" x2="619.972" y2="781.244" gradientUnits="userSpaceOnUse">
<stop stop-color="#28AD44"/>
<stop offset="1" stop-color="#7AAB40"/>
</linearGradient>
</defs>
</svg>
