<svg width="113" height="111" viewBox="0 0 113 111" fill="none" xmlns="http://www.w3.org/2000/svg">
<path fill-rule="evenodd" clip-rule="evenodd" d="M112.323 55.5C112.323 86.1518 87.189 111 56.1845 111C25.18 111 0.0458984 86.1518 0.0458984 55.5C0.0458984 24.8482 25.18 0 56.1845 0C87.189 0 112.323 24.8482 112.323 55.5ZM26.145 61.1536V79.2857H17.2484V31.9257H52.219V39.3003H26.145V53.7113H49.2763V61.1536H26.145ZM72.2642 78.2032C75.4122 79.3759 78.8113 79.9623 82.4611 79.9623C86.4304 79.9623 90.0347 79.2857 93.274 77.9326C96.5133 76.5794 99.2507 74.6174 101.486 72.0464L95.7376 66.6338C94.004 68.5282 92.065 69.949 89.9206 70.8962C87.7763 71.7983 85.4495 72.2494 82.9402 72.2494C80.4309 72.2494 78.1269 71.8434 76.0282 71.0315C73.9751 70.2197 72.173 69.0695 70.6218 67.581C69.1162 66.0926 67.93 64.3335 67.0631 62.3038C66.2419 60.2741 65.8313 58.0414 65.8313 55.6057C65.8313 53.1701 66.2419 50.9374 67.0631 48.9077C67.93 46.8779 69.1162 45.1189 70.6218 43.6304C72.173 42.1419 73.9751 40.9918 76.0282 40.1799C78.1269 39.368 80.4309 38.9621 82.9402 38.9621C85.4495 38.9621 87.7763 39.4357 89.9206 40.3829C92.065 41.2849 94.004 42.6607 95.7376 44.5099L101.486 39.165C99.2507 36.5489 96.5133 34.5869 93.274 33.2789C90.0347 31.9257 86.4533 31.2491 82.5296 31.2491C78.834 31.2491 75.4351 31.8581 72.3326 33.0759C69.2303 34.2486 66.5156 35.94 64.1888 38.1502C61.862 40.3152 60.0599 42.8862 58.7824 45.8631C57.505 48.84 56.8662 52.0875 56.8662 55.6057C56.8662 59.1239 57.505 62.3714 58.7824 65.3483C60.0599 68.3253 61.8392 70.9187 64.1204 73.1289C66.4472 75.2939 69.1618 76.9854 72.2642 78.2032Z" fill="#060000"/>
</svg>
