<svg width="105" height="105" viewBox="0 0 105 105" fill="none" xmlns="http://www.w3.org/2000/svg">
<circle cx="52.5" cy="52.5" r="52.5" fill="black"/>
<path d="M22.632 50.808H44.968V57.848H22.632V50.808ZM23.336 75H15.016V30.2H47.72V37.176H23.336V75ZM76.002 75.64C72.5887 75.64 69.41 75.0853 66.466 73.976C63.5647 72.824 61.026 71.224 58.85 69.176C56.7167 67.0853 55.0527 64.632 53.858 61.816C52.6633 59 52.066 55.928 52.066 52.6C52.066 49.272 52.6633 46.2 53.858 43.384C55.0527 40.568 56.738 38.136 58.914 36.088C61.09 33.9973 63.6287 32.3973 66.53 31.288C69.4313 30.136 72.61 29.56 76.066 29.56C79.7353 29.56 83.0847 30.2 86.114 31.48C89.1433 32.7173 91.7033 34.5733 93.794 37.048L88.418 42.104C86.7967 40.3547 84.9833 39.0533 82.978 38.2C80.9727 37.304 78.7967 36.856 76.45 36.856C74.1033 36.856 71.9487 37.24 69.986 38.008C68.066 38.776 66.3807 39.864 64.93 41.272C63.522 42.68 62.4127 44.344 61.602 46.264C60.834 48.184 60.45 50.296 60.45 52.6C60.45 54.904 60.834 57.016 61.602 58.936C62.4127 60.856 63.522 62.52 64.93 63.928C66.3807 65.336 68.066 66.424 69.986 67.192C71.9487 67.96 74.1033 68.344 76.45 68.344C78.7967 68.344 80.9727 67.9173 82.978 67.064C84.9833 66.168 86.7967 64.824 88.418 63.032L93.794 68.152C91.7033 70.584 89.1433 72.44 86.114 73.72C83.0847 75 79.714 75.64 76.002 75.64Z" fill="white"/>
</svg>
